<svg width="195" height="43" viewBox="0 0 195 43" fill="none" xmlns="http://www.w3.org/2000/svg">
<path d="M48.0823 34.3254C43.3101 34.3254 40.8517 31.5416 40.1287 29.3001L43.1655 27.7817C43.5994 29.264 45.2985 31.1078 48.1546 31.1078C50.613 31.1078 52.0229 30.1317 52.0229 28.7579C52.0229 27.6733 51.2637 26.8779 49.673 26.5525L46.0577 25.8656C43.1655 25.2872 41.141 23.6242 41.141 20.5873C41.141 17.3697 44.0693 15.056 48.2269 15.056C52.8545 15.056 54.879 17.659 55.5298 19.6474L52.5291 21.0935C52.2399 19.7197 50.7576 18.2012 48.1908 18.2012C45.9854 18.2012 44.6478 19.2135 44.6478 20.515C44.6478 21.7081 45.5154 22.3588 46.8531 22.6119L50.6491 23.3711C53.9752 24.0218 55.7105 26.0825 55.7105 28.6494C55.7105 32.0116 52.7098 34.3254 48.0823 34.3254ZM66.3276 34.3254C60.6154 34.3254 56.8917 30.1317 56.8917 24.7087C56.8917 19.2135 60.6516 15.056 66.2914 15.056C71.7505 15.056 75.185 19.3581 75.185 24.2749V25.9741H60.5431C61.0131 29.5171 63.3992 31.0716 66.3276 31.0716C69.2921 31.0716 71.2082 29.264 71.7866 27.6371L74.5704 29.1194C73.775 31.1801 71.2443 34.3254 66.3276 34.3254ZM60.6516 22.9373H71.4251C71.389 20.6235 69.4367 18.2374 66.2553 18.2374C63.5077 18.2374 61.2662 19.8643 60.6516 22.9373ZM77.5327 34V7.24697H81.1479V34H77.5327ZM86.2093 34V18.5989H83.0279V15.3813H86.2816V7.24697H93.6568V10.5007H89.8607V15.3813H94.5606V18.5989H89.8607V34H86.2093ZM104.323 34.3254C99.2252 34.3254 95.2122 30.7101 95.2122 24.6726C95.2122 19.1051 99.1529 15.056 104.323 15.056C106.926 15.056 109.42 16.249 110.505 17.8397V7.24697H114.12V34H110.505V31.6501C109.348 33.2046 106.781 34.3254 104.323 34.3254ZM98.8636 24.6726C98.8636 28.1433 101.105 30.9993 104.72 30.9993C108.336 30.9993 110.577 28.1433 110.577 24.6726C110.577 21.2742 108.336 18.4182 104.72 18.4182C101.105 18.4182 98.8636 21.2381 98.8636 24.6726ZM118.086 34V15.3813H121.701V18.7074L128.751 14.9837V18.8882L121.701 22.395V34H118.086ZM131.034 34V15.3813H134.649V34H131.034ZM130.203 9.6692C130.203 8.15078 131.323 7.03005 132.842 7.03005C134.36 7.03005 135.481 8.15078 135.481 9.6692C135.481 11.1515 134.36 12.3084 132.842 12.3084C131.323 12.3084 130.203 11.1515 130.203 9.6692ZM143.963 34L136.516 15.3813H140.457L145.988 29.7701L151.266 15.3813H155.243L147.868 34H143.963ZM164.427 34.3254C158.715 34.3254 154.991 30.1317 154.991 24.7087C154.991 19.2135 158.751 15.056 164.391 15.056C169.85 15.056 173.285 19.3581 173.285 24.2749V25.9741H158.643C159.113 29.5171 161.499 31.0716 164.427 31.0716C167.392 31.0716 169.308 29.264 169.886 27.6371L172.67 29.1194C171.875 31.1801 169.344 34.3254 164.427 34.3254ZM158.751 22.9373H169.525C169.489 20.6235 167.536 18.2374 164.355 18.2374C161.607 18.2374 159.366 19.8643 158.751 22.9373ZM175.994 34V15.3813H179.609V17.6951C180.585 16.1405 182.429 15.056 184.96 15.056C189.081 15.056 191.973 18.1289 191.973 22.1419V34H188.358V23.0096C188.358 20.1173 186.442 18.4543 183.984 18.4543C181.489 18.4543 179.609 20.262 179.609 23.0096V34H175.994Z" fill="white"/>
<path fill-rule="evenodd" clip-rule="evenodd" d="M0 14.7134L11.1821 3.53125V14.7134L0 25.8955V14.7134ZM11.3503 34.1344H0L22.4483 11.6861V23.0364L11.3503 34.1344ZM19.9258 34.0506L30.9398 23.0366V34.0506H19.9258Z" fill="white"/>
</svg>
