<svg width="196" height="44" viewBox="0 0 196 44" fill="none" xmlns="http://www.w3.org/2000/svg">
<path d="M48.4305 35.327C43.6341 35.327 41.1633 32.5292 40.4366 30.2764L43.4888 28.7503C43.9248 30.24 45.6326 32.0931 48.5031 32.0931C50.974 32.0931 52.3911 31.1121 52.3911 29.7313C52.3911 28.6412 51.628 27.8419 50.0292 27.5148L46.3957 26.8245C43.4888 26.2431 41.454 24.5716 41.454 21.5194C41.454 18.2856 44.3972 15.9601 48.5758 15.9601C53.2268 15.9601 55.2616 18.5763 55.9156 20.5747L52.8998 22.0281C52.6091 20.6474 51.1193 19.1213 48.5395 19.1213C46.323 19.1213 44.9786 20.1387 44.9786 21.4468C44.9786 22.6459 45.8506 23.2999 47.195 23.5542L51.0103 24.3173C54.3532 24.9713 56.0973 27.0425 56.0973 29.6223C56.0973 33.0015 53.0814 35.327 48.4305 35.327ZM66.7681 35.327C61.027 35.327 57.2844 31.1121 57.2844 25.6617C57.2844 20.1387 61.0634 15.9601 66.7317 15.9601C72.2184 15.9601 75.6703 20.284 75.6703 25.2257V26.9335H60.9544C61.4267 30.4944 63.8249 32.0568 66.7681 32.0568C69.7476 32.0568 71.6734 30.24 72.2548 28.6049L75.0526 30.0947C74.2532 32.1658 71.7097 35.327 66.7681 35.327ZM61.0634 23.8813H71.8914C71.8551 21.5558 69.8929 19.1576 66.6954 19.1576C63.9339 19.1576 61.6811 20.7927 61.0634 23.8813ZM78.0299 35V8.11157H81.6634V35H78.0299ZM86.7504 35V19.521H83.5529V16.2871H86.8231V8.11157H94.2356V11.3818H90.4204V16.2871H95.144V19.521H90.4204V35H86.7504ZM104.955 35.327C99.8322 35.327 95.7989 31.6934 95.7989 25.6254C95.7989 20.0297 99.7595 15.9601 104.955 15.9601C107.572 15.9601 110.079 17.1592 111.169 18.7579V8.11157H114.802V35H111.169V32.6382C110.006 34.2006 107.426 35.327 104.955 35.327ZM99.4688 25.6254C99.4688 29.1136 101.722 31.9841 105.355 31.9841C108.989 31.9841 111.242 29.1136 111.242 25.6254C111.242 22.2098 108.989 19.3393 105.355 19.3393C101.722 19.3393 99.4688 22.1735 99.4688 25.6254ZM118.788 35V16.2871H122.422V19.63L129.507 15.8874V19.8117L122.422 23.3362V35H118.788ZM131.802 35V16.2871H135.436V35H131.802ZM130.966 10.5461C130.966 9.01996 132.093 7.89355 133.619 7.89355C135.145 7.89355 136.271 9.01996 136.271 10.5461C136.271 12.0358 135.145 13.1986 133.619 13.1986C132.093 13.1986 130.966 12.0358 130.966 10.5461ZM144.797 35L137.312 16.2871H141.272L146.832 30.7487L152.137 16.2871H156.134L148.721 35H144.797ZM165.364 35.327C159.623 35.327 155.881 31.1121 155.881 25.6617C155.881 20.1387 159.659 15.9601 165.328 15.9601C170.815 15.9601 174.266 20.284 174.266 25.2257V26.9335H159.55C160.023 30.4944 162.421 32.0568 165.364 32.0568C168.344 32.0568 170.27 30.24 170.851 28.6049L173.649 30.0947C172.849 32.1658 170.306 35.327 165.364 35.327ZM159.659 23.8813H170.488C170.451 21.5558 168.489 19.1576 165.292 19.1576C162.53 19.1576 160.277 20.7927 159.659 23.8813ZM176.989 35V16.2871H180.623V18.6126C181.604 17.0502 183.457 15.9601 186.001 15.9601C190.143 15.9601 193.05 19.0486 193.05 23.0819V35H189.416V23.9539C189.416 21.0471 187.49 19.3756 185.02 19.3756C182.512 19.3756 180.623 21.1924 180.623 23.9539V35H176.989Z" fill="url(#paint0_linear_469_8238)"/>
<path fill-rule="evenodd" clip-rule="evenodd" d="M0 14.9575L11.2387 3.71875V14.9575L0 26.1962V14.9575ZM11.4077 34.478H0L22.5619 11.916V23.3237L11.4077 34.478ZM20.0273 34.393L31.0971 23.3232V34.393H20.0273Z" fill="url(#paint1_radial_469_8238)"/>
<defs>
<linearGradient id="paint0_linear_469_8238" x1="115.067" y1="43.5193" x2="113.315" y2="-49.3839" gradientUnits="userSpaceOnUse">
<stop stop-color="#420633"/>
<stop offset="1" stop-color="#420633" stop-opacity="0.5"/>
</linearGradient>
<radialGradient id="paint1_radial_469_8238" cx="0" cy="0" r="1" gradientUnits="userSpaceOnUse" gradientTransform="translate(12.0839 8.61994) rotate(82.3686) scale(26.0891 26.3757)">
<stop stop-color="#420633" stop-opacity="0.5"/>
<stop offset="1" stop-color="#420633"/>
</radialGradient>
</defs>
</svg>
